<svg height="256.124969" viewBox="0 0 600.067 393.851" width="390.434405" xmlns="http://www.w3.org/2000/svg" xmlns:xlink="http://www.w3.org/1999/xlink"><clipPath id="a"><path d="m0 393.851h600.067v-393.851h-600.067z" transform="matrix(1 0 0 -1 0 393.851)"/></clipPath><g clip-path="url(#a)" enable-background="new"><path d="m0 0c0-8.966-7.267-16.233-16.234-16.233-8.968 0-16.238 7.267-16.238 16.233 0 8.97 7.27 16.235 16.238 16.235 8.967 0 16.234-7.265 16.234-16.235" fill="#0a3a5d" transform="matrix(1 0 0 -1 303.1064 121.68381)"/><path d="m0 0c0-8.966-7.267-16.233-16.234-16.233-8.968 0-16.238 7.267-16.238 16.233 0 8.97 7.27 16.237 16.238 16.237 8.967 0 16.234-7.267 16.234-16.237" fill="#0a3a5d" transform="matrix(1 0 0 -1 303.1064 160.64772)"/><path d="m0 0c0-8.966-7.27-16.233-16.237-16.233-8.97 0-16.235 7.267-16.235 16.233 0 8.97 7.265 16.235 16.235 16.235 8.967 0 16.237-7.265 16.237-16.235" fill="#0a3a5d" transform="matrix(1 0 0 -1 342.0752 121.68381)"/><path d="m0 0c0-7.173-5.817-12.985-12.992-12.985-7.176 0-12.99 5.812-12.99 12.985 0 7.176 5.814 12.988 12.99 12.988 7.175 0 12.992-5.812 12.992-12.988" fill="#588eb5" transform="matrix(1 0 0 -1 299.8628 85.96652)"/><path d="m0 0c0-7.173-5.814-12.985-12.988-12.985-7.176 0-12.99 5.812-12.99 12.985 0 7.176 5.814 12.988 12.99 12.988 7.174 0 12.988-5.812 12.988-12.988" fill="#588eb5" transform="matrix(1 0 0 -1 338.8281 85.96652)"/><path d="m0 0c0-7.171-5.81-12.988-12.987-12.988-7.176 0-12.988 5.817-12.988 12.988 0 7.178 5.812 12.99 12.988 12.99 7.177 0 12.987-5.812 12.987-12.99" fill="#588eb5" transform="matrix(1 0 0 -1 374.5449 121.68381)"/><path d="m0 0c0-8.966-7.27-16.233-16.237-16.233-8.97 0-16.235 7.267-16.235 16.233 0 8.97 7.265 16.237 16.235 16.237 8.967 0 16.237-7.267 16.237-16.237" fill="#0a3a5d" transform="matrix(1 0 0 -1 342.0752 160.64772)"/><path d="m0 0c0-7.171-5.81-12.985-12.987-12.985-7.176 0-12.988 5.814-12.988 12.985 0 7.175 5.812 12.99 12.988 12.99 7.177 0 12.987-5.815 12.987-12.99" fill="#588eb5" transform="matrix(1 0 0 -1 374.5449 160.64772)"/><path d="m0 0c0-7.171-5.81-12.988-12.99-12.988-7.176 0-12.988 5.817-12.988 12.988 0 7.178 5.812 12.99 12.988 12.99 7.18 0 12.99-5.812 12.99-12.99" fill="#588eb5" transform="matrix(1 0 0 -1 264.1406 121.68381)"/><path d="m0 0c0-5.738-4.652-10.391-10.393-10.391-5.739 0-10.391 4.653-10.391 10.391 0 5.739 4.652 10.391 10.391 10.391 5.741 0 10.393-4.652 10.393-10.391" fill="#9fbcd8" transform="matrix(1 0 0 -1 261.5434 85.96652)"/><path d="m0 0c0-5.738-4.652-10.391-10.391-10.391-5.741 0-10.39 4.653-10.39 10.391 0 5.739 4.649 10.391 10.39 10.391 5.739 0 10.391-4.652 10.391-10.391" fill="#9fbcd8" transform="matrix(1 0 0 -1 371.9502 85.96652)"/><path d="m0 0c0-5.739-4.652-10.389-10.391-10.389-5.741 0-10.39 4.65-10.39 10.389 0 5.741 4.649 10.391 10.39 10.391 5.739 0 10.391-4.65 10.391-10.391" fill="#9fbcd8" transform="matrix(1 0 0 -1 371.9502 199.61151)"/><path d="m0 0c0-5.739-4.652-10.389-10.393-10.389-5.739 0-10.391 4.65-10.391 10.389 0 5.741 4.652 10.391 10.391 10.391 5.741 0 10.393-4.65 10.393-10.391" fill="#9fbcd8" transform="matrix(1 0 0 -1 261.5434 199.61151)"/><path d="m0 0c0-3.674-2.977-6.651-6.651-6.651-3.671 0-6.651 2.977-6.651 6.651 0 3.671 2.98 6.65 6.651 6.65 3.674 0 6.651-2.979 6.651-6.65" fill="#dde9f4" transform="matrix(1 0 0 -1 240.7602 68.92313)"/><path d="m0 0c0-3.674-2.977-6.651-6.65-6.651-3.674 0-6.652 2.977-6.652 6.651 0 3.671 2.978 6.65 6.652 6.65 3.673 0 6.65-2.979 6.65-6.65" fill="#dde9f4" transform="matrix(1 0 0 -1 385.2519 68.92313)"/><path d="m0 0c0-3.676-2.977-6.651-6.651-6.651-3.671 0-6.651 2.975-6.651 6.651s2.98 6.653 6.651 6.653c3.674 0 6.651-2.977 6.651-6.653" fill="#dde9f4" transform="matrix(1 0 0 -1 240.7602 214.40842)"/><path d="m0 0c0-3.676-2.977-6.651-6.65-6.651-3.674 0-6.652 2.975-6.652 6.651s2.978 6.653 6.652 6.653c3.673 0 6.65-2.977 6.65-6.653" fill="#dde9f4" transform="matrix(1 0 0 -1 385.2519 214.40842)"/><path d="m0 0c0-4.59-3.717-8.314-8.31-8.314-4.592 0-8.314 3.724-8.314 8.314s3.722 8.31 8.314 8.31c4.593 0 8.31-3.72 8.31-8.31" fill="#d7e3f3" transform="matrix(1 0 0 -1 359.4785 57.224824)"/><path d="m0 0c0-4.59-3.722-8.313-8.313-8.313-4.59 0-8.312 3.723-8.312 8.313 0 4.593 3.722 8.31 8.312 8.31 4.591 0 8.313-3.717 8.313-8.31" fill="#d7e3f3" transform="matrix(1 0 0 -1 230.7309 96.354709)"/><path d="m0 0c0-4.59-3.717-8.314-8.31-8.314-4.59 0-8.315 3.724-8.315 8.314s3.725 8.31 8.315 8.31c4.593 0 8.31-3.72 8.31-8.31" fill="#d7e3f3" transform="matrix(1 0 0 -1 269.854 57.224824)"/><path d="m0 0c0-4.591-3.717-8.313-8.31-8.313-4.59 0-8.315 3.722-8.315 8.313 0 4.595 3.725 8.312 8.315 8.312 4.593 0 8.31-3.717 8.31-8.312" fill="#d7e3f3" transform="matrix(1 0 0 -1 269.854 225.1018)"/><path d="m0 0c0-4.591-3.717-8.313-8.31-8.313-4.592 0-8.314 3.722-8.314 8.313 0 4.595 3.722 8.312 8.314 8.312 4.593 0 8.31-3.717 8.31-8.312" fill="#d7e3f3" transform="matrix(1 0 0 -1 359.4785 225.1018)"/><path d="m0 0c0-4.593-3.722-8.313-8.313-8.313-4.59 0-8.312 3.72-8.312 8.313 0 4.59 3.722 8.31 8.312 8.31 4.591 0 8.313-3.72 8.313-8.31" fill="#d7e3f3" transform="matrix(1 0 0 -1 230.7309 189.21752)"/><path d="m0 0c0-4.59-3.717-8.313-8.313-8.313-4.587 0-8.312 3.723-8.312 8.313 0 4.593 3.725 8.31 8.312 8.31 4.596 0 8.313-3.717 8.313-8.31" fill="#d7e3f3" transform="matrix(1 0 0 -1 398.6054 96.354709)"/><path d="m0 0c0-4.593-3.717-8.313-8.313-8.313-4.587 0-8.312 3.72-8.312 8.313 0 4.59 3.725 8.31 8.312 8.31 4.596 0 8.313-3.72 8.313-8.31" fill="#d7e3f3" transform="matrix(1 0 0 -1 398.6054 189.21752)"/><path d="m0 0c0-5.738-4.652-10.391-10.393-10.391-5.739 0-10.391 4.653-10.391 10.391 0 5.739 4.652 10.391 10.391 10.391 5.741 0 10.393-4.652 10.393-10.391" fill="#aec8e7" transform="matrix(1 0 0 -1 261.5434 85.96652)"/><path d="m0 0c0-5.738-4.652-10.391-10.391-10.391-5.741 0-10.39 4.653-10.39 10.391 0 5.739 4.649 10.391 10.39 10.391 5.739 0 10.391-4.652 10.391-10.391" fill="#aec8e7" transform="matrix(1 0 0 -1 371.9502 85.96652)"/><path d="m0 0c0-5.739-4.652-10.389-10.391-10.389-5.741 0-10.39 4.65-10.39 10.389 0 5.741 4.649 10.391 10.39 10.391 5.739 0 10.391-4.65 10.391-10.391" fill="#aec8e7" transform="matrix(1 0 0 -1 371.9502 199.61151)"/><path d="m0 0c0-5.739-4.652-10.389-10.393-10.389-5.739 0-10.391 4.65-10.391 10.389 0 5.741 4.652 10.391 10.391 10.391 5.741 0 10.393-4.65 10.393-10.391" fill="#aec8e7" transform="matrix(1 0 0 -1 261.5434 199.61151)"/><path d="m0 0c0-5.739-4.652-10.391-10.391-10.391-5.741 0-10.391 4.652-10.391 10.391 0 5.741 4.65 10.391 10.391 10.391 5.739 0 10.391-4.65 10.391-10.391" fill="#aec8e7" transform="matrix(1 0 0 -1 222.4179 160.6457)"/><path d="m0 0c0-5.739-4.652-10.391-10.391-10.391-5.741 0-10.391 4.652-10.391 10.391s4.65 10.389 10.391 10.389c5.739 0 10.391-4.65 10.391-10.389" fill="#aec8e7" transform="matrix(1 0 0 -1 222.4179 121.68091)"/><path d="m0 0c0-5.739 4.65-10.391 10.391-10.391 5.739 0 10.393 4.652 10.393 10.391 0 5.741-4.654 10.391-10.393 10.391-5.741 0-10.391-4.65-10.391-10.391" fill="#aec8e7" transform="matrix(1 0 0 -1 390.2939 160.6457)"/><path d="m0 0c0-5.741 4.65-10.391 10.391-10.391 5.739 0 10.393 4.65 10.393 10.391 0 5.738-4.654 10.391-10.393 10.391-5.741 0-10.391-4.653-10.391-10.391" fill="#aec8e7" transform="matrix(1 0 0 -1 390.2939 121.68231)"/><path d="m0 0c-5.736 0-10.389 4.652-10.389 10.393 0 5.739 4.653 10.394 10.389 10.394 5.743 0 10.391-4.655 10.391-10.394 0-5.741-4.648-10.393-10.391-10.393" fill="#aec8e7" transform="matrix(1 0 0 -1 286.8711 57.22632)"/><path d="m0 0c-5.736 0-10.389 4.652-10.389 10.393 0 5.739 4.653 10.394 10.389 10.394 5.738 0 10.391-4.655 10.391-10.394 0-5.741-4.653-10.393-10.391-10.393" fill="#aec8e7" transform="matrix(1 0 0 -1 325.8369 57.22632)"/><path d="m0 0c-5.736 0-10.389-4.65-10.389-10.394 0-5.736 4.653-10.39 10.389-10.39 5.743 0 10.391 4.654 10.391 10.39 0 5.744-4.648 10.394-10.391 10.394" fill="#aec8e7" transform="matrix(1 0 0 -1 286.8711 225.1018)"/><path d="m0 0c-5.736 0-10.389-4.65-10.389-10.394 0-5.736 4.653-10.39 10.389-10.39 5.738 0 10.391 4.654 10.391 10.39 0 5.744-4.653 10.394-10.391 10.394" fill="#aec8e7" transform="matrix(1 0 0 -1 325.8369 225.1018)"/><path d="m0 0c0-7.171-5.81-12.985-12.99-12.985-7.176 0-12.988 5.814-12.988 12.985 0 7.175 5.812 12.99 12.988 12.99 7.18 0 12.99-5.815 12.99-12.99" fill="#588eb5" transform="matrix(1 0 0 -1 264.1406 160.64772)"/><path d="m0 0c0-8.964-7.267-16.235-16.234-16.235-8.968 0-16.238 7.271-16.238 16.235 0 8.972 7.27 16.237 16.238 16.237 8.967 0 16.234-7.265 16.234-16.237" fill="#0a3a5d" transform="matrix(1 0 0 -1 303.1064 199.61151)"/><path d="m0 0c0-7.174-5.814-12.988-12.988-12.988-7.176 0-12.99 5.814-12.99 12.988 0 7.178 5.814 12.99 12.99 12.99 7.174 0 12.988-5.812 12.988-12.99" fill="#588eb5" transform="matrix(1 0 0 -1 338.8281 199.61151)"/><g fill="#0a3a5d"><path d="m0 0h11.249c1.686 0 3.226-.223 4.615-.667 1.386-.442 2.573-1.072 3.564-1.889.985-.815 1.746-1.807 2.273-2.981.528-1.176.796-2.505.796-3.994v-.088c0-1.629-.317-3.053-.945-4.272-.63-1.214-1.48-2.237-2.557-3.071-1.071-.827-2.324-1.45-3.754-1.865s-2.95-.621-4.55-.621h-7.301v-10.605h-3.39zm10.838-16.402c1.233 0 2.361.158 3.378.476 1.022.314 1.895.768 2.629 1.357.729.587 1.29 1.283 1.677 2.088.388.804.582 1.708.582 2.713v.087c0 2.155-.742 3.782-2.218 4.889-1.478 1.104-3.438 1.659-5.876 1.659h-7.62v-13.269z" transform="matrix(1 0 0 -1 31.3642 291.0949)"/><path d="m0 0c-2.29 0-4.373.417-6.247 1.247-1.877.829-3.486 1.952-4.829 3.371-1.35 1.416-2.386 3.062-3.114 4.937-.729 1.875-1.096 3.841-1.096 5.901v.087c0 2.062.371 4.036 1.116 5.925.745 1.89 1.79 3.543 3.135 4.959 1.346 1.419 2.961 2.546 4.849 3.391 1.892.844 3.981 1.268 6.273 1.268 2.288 0 4.371-.415 6.246-1.244 1.872-.83 3.483-1.955 4.828-3.371 1.345-1.417 2.383-3.065 3.115-4.937.728-1.875 1.093-3.846 1.093-5.906.03-.027.03-.058 0-.085 0-2.061-.371-4.036-1.116-5.922-.745-1.892-1.788-3.543-3.135-4.962-1.346-1.416-2.961-2.548-4.85-3.391-1.891-.844-3.98-1.268-6.268-1.268m.087 3.133c1.717 0 3.298.323 4.744.968 1.442.643 2.684 1.523 3.713 2.639 1.031 1.116 1.838 2.42 2.425 3.907.586 1.491.88 3.092.88 4.809v.087c0 1.717-.294 3.33-.88 4.831-.587 1.499-1.41 2.814-2.466 3.929-1.062 1.118-2.315 2-3.759 2.66-1.446.658-3.027.988-4.744.988-1.719 0-3.3-.323-4.746-.965-1.444-.644-2.682-1.526-3.715-2.64-1.027-1.118-1.838-2.42-2.422-3.908-.587-1.487-.881-3.089-.881-4.81v-.085c0-1.717.294-3.327.881-4.831.584-1.501 1.406-2.812 2.468-3.928 1.056-1.116 2.31-2.003 3.756-2.663 1.444-.655 3.028-.988 4.746-.988" transform="matrix(1 0 0 -1 73.9975 321.66523)"/><path d="m0 0h3.695l8.585-25.029 8.243 25.116h2.791l8.244-25.116 8.588 25.029h3.563l-10.734-30.268h-2.877l-8.244 24.385-8.284-24.385h-2.835z" transform="matrix(1 0 0 -1 94.2173 291.0949)"/><path d="m0 0h21.724v-3.048h-18.33v-10.346h16.398v-3.049h-16.398v-10.561h18.545v-3.049h-21.939z" transform="matrix(1 0 0 -1 144.0659 291.0949)"/><path d="m0 0h12.923c1.862 0 3.512-.266 4.958-.796 1.446-.526 2.64-1.267 3.584-2.209.745-.747 1.315-1.618 1.719-2.622.401-.999.6-2.102.6-3.302v-.087c0-1.258-.199-2.381-.6-3.372-.404-.987-.965-1.844-1.696-2.573-.731-.731-1.595-1.332-2.599-1.804-.999-.471-2.088-.808-3.261-1.01l9.229-12.278h-4.162l-8.718 11.68h-.085-8.5v-11.68h-3.392zm12.646-15.328c1.119 0 2.15.142 3.099.429.944.287 1.764.694 2.452 1.226.687.529 1.228 1.171 1.615 1.93.388.756.581 1.625.581 2.598v.085c0 1.862-.674 3.312-2.024 4.36-1.348 1.045-3.243 1.567-5.679 1.567h-9.298v-12.195z" transform="matrix(1 0 0 -1 172.8315 291.0949)"/><path d="m217.054 102.755h3.389v-30.053001h-3.389z" transform="matrix(1 0 0 -1 0 393.851)"/><path d="m0 0h3.176l18.933-24.087v24.087h3.307v-30.053h-2.707l-19.402 24.642v-24.642h-3.307z" transform="matrix(1 0 0 -1 229.2466 291.0949)"/><path d="m0 0h-10.086v3.133h23.569v-3.133h-10.089v-26.917h-3.394z" transform="matrix(1 0 0 -1 271.104 294.2287)"/><path d="m0 0h21.721v-3.048h-18.329v-10.346h16.4v-3.049h-16.4v-10.561h18.547v-3.049h-21.939z" transform="matrix(1 0 0 -1 290.9848 291.0949)"/><path d="m0 0h12.923c1.861 0 3.514-.266 4.96-.796 1.445-.526 2.638-1.267 3.582-2.209.747-.747 1.317-1.618 1.719-2.622.4-.999.602-2.102.602-3.302v-.087c0-1.258-.202-2.381-.602-3.372-.402-.987-.965-1.844-1.697-2.573-.73-.731-1.594-1.332-2.596-1.804-1.001-.471-2.09-.808-3.264-1.01l9.231-12.278h-4.164l-8.715 11.68h-.087-8.5v-11.68h-3.392zm12.648-15.328c1.116 0 2.152.142 3.094.429.948.287 1.769.694 2.454 1.226.688.529 1.229 1.171 1.616 1.93.385.756.583 1.625.583 2.598v.085c0 1.862-.677 3.312-2.025 4.36-1.349 1.045-3.24 1.567-5.683 1.567h-9.295v-12.195z" transform="matrix(1 0 0 -1 319.75 291.0949)"/><path d="m0 0h3.174l18.934-24.087v24.087h3.308v-30.053h-2.707l-19.404 24.642v-24.642h-3.305z" transform="matrix(1 0 0 -1 350.7939 291.0949)"/><path d="m0 0h3.177l13.698-30.268h-3.651l-3.523 7.941h-16.354l-3.566-7.941h-3.476zm8.37-19.278-6.825 15.327-6.871-15.327z" transform="matrix(1 0 0 -1 395.8291 290.87913)"/><path d="m0 0h-10.088v3.133h23.57v-3.133h-10.089v-26.917h-3.393z" transform="matrix(1 0 0 -1 426.5683 294.2287)"/><path d="m446.746 102.755h3.393v-30.053001h-3.393z" transform="matrix(1 0 0 -1 0 393.851)"/><path d="m0 0c-2.292 0-4.375.417-6.248 1.247-1.874.829-3.485 1.952-4.831 3.371-1.348 1.416-2.383 3.062-3.112 4.937-.731 1.875-1.095 3.841-1.095 5.901v.087c0 2.062.371 4.036 1.115 5.925.745 1.89 1.79 3.543 3.134 4.959 1.347 1.419 2.965 2.546 4.851 3.391 1.891.844 3.981 1.268 6.271 1.268 2.289 0 4.372-.415 6.247-1.244 1.875-.83 3.483-1.955 4.829-3.371 1.343-1.417 2.383-3.065 3.114-4.937.727-1.875 1.093-3.846 1.093-5.906.028-.027.028-.058 0-.085 0-2.061-.373-4.036-1.116-5.922-.742-1.892-1.792-3.543-3.135-4.962-1.346-1.416-2.961-2.548-4.851-3.391-1.889-.844-3.979-1.268-6.266-1.268m.085 3.133c1.716 0 3.3.323 4.746.968 1.443.643 2.682 1.523 3.713 2.639s1.838 2.42 2.424 3.907c.587 1.491.881 3.092.881 4.809v.087c0 1.717-.294 3.33-.881 4.831-.586 1.499-1.411 2.814-2.468 3.929-1.059 1.118-2.313 2-3.756 2.66-1.449.658-3.028.988-4.744.988-1.722 0-3.301-.323-4.746-.965-1.444-.644-2.682-1.526-3.713-2.64-1.031-1.118-1.841-2.42-2.428-3.908-.586-1.487-.877-3.089-.877-4.81v-.085c0-1.717.291-3.327.877-4.831.587-1.501 1.41-2.812 2.469-3.928 1.062-1.116 2.314-2.003 3.761-2.663 1.441-.655 3.025-.988 4.742-.988" transform="matrix(1 0 0 -1 472.8965 321.66523)"/><path d="m0 0h3.179l18.932-24.087v24.087h3.305v-30.053h-2.704l-19.404 24.642v-24.642h-3.308z" transform="matrix(1 0 0 -1 495.4355 291.0949)"/><path d="m0 0h3.177l13.695-30.268h-3.648l-3.521 7.941h-16.356l-3.566-7.941h-3.476zm8.374-19.278-6.827 15.327-6.873-15.327z" transform="matrix(1 0 0 -1 540.4736 290.87913)"/><path d="m0 0v-30.053h20.308v3.131h-16.916v26.922z" transform="matrix(1 0 0 -1 563.2725 291.094)"/></g><path d="m159.008 43.655h6.884v1.438999h-6.884z" fill="#588eb5" transform="matrix(1 0 0 -1 0 393.851)"/><path d="m0 0v-8.347h-11.51v8.347h-1.331v-17.979h1.331v8.422h11.51v-8.422h1.331v17.979z" fill="#588eb5" transform="matrix(1 0 0 -1 200.1518 339.1242)"/><path d="m0 0c-.433-1.121-1.047-2.111-1.833-2.966-.791-.857-1.745-1.535-2.865-2.042-1.123-.504-2.359-.759-3.713-.759-1.368 0-2.606.255-3.711.759-1.102.507-2.048 1.18-2.835 2.03-.79.846-1.395 1.828-1.824 2.939-.428 1.113-.644 2.284-.644 3.518v.052c0 1.234.22 2.408.658 3.531.434 1.122 1.045 2.109 1.836 2.964.786.86 1.735 1.54 2.848 2.047 1.114.504 2.354.754 3.725.754 1.352 0 2.585-.25 3.699-.754 1.111-.507 2.06-1.185 2.848-2.031.789-.848 1.396-1.826 1.825-2.942.426-1.112.641-2.283.641-3.516.016-.019.016-.034 0-.053 0-1.233-.218-2.411-.655-3.531m-.731 3.531c0 1.112-.193 2.161-.58 3.147-.383.983-.915 1.841-1.588 2.567-.679.727-1.488 1.306-2.43 1.733-.942.428-1.968.641-3.082.641s-2.133-.209-3.067-.628c-.937-.42-1.739-.995-2.415-1.719-.676-.729-1.203-1.582-1.577-2.557-.38-.975-.568-2.02-.568-3.131v-.053c0-1.111.197-2.163.58-3.144.385-.986.916-1.84 1.59-2.572.676-.728 1.488-1.303 2.427-1.732.942-.427 1.969-.642 3.083-.642 1.111 0 2.136.208 3.071.63.933.417 1.735.991 2.411 1.719.678.73 1.203 1.579 1.579 2.556.378.976.566 2.021.566 3.133z" fill="#588eb5" transform="matrix(1 0 0 -1 240.4043 351.6447)"/><path d="m0 0v-17.979h11.892v1.21h-10.556v16.769z" fill="#588eb5" transform="matrix(1 0 0 -1 262.5537 339.1242)"/><path d="m0 0c-.463-1.098-1.116-2.049-1.967-2.851-.847-.804-1.858-1.439-3.029-1.902-1.174-.463-2.459-.694-3.864-.694h-5.984v17.981h5.984c1.405 0 2.69-.231 3.864-.683 1.171-.456 2.182-1.084 3.029-1.886.851-.805 1.504-1.753 1.967-2.84.461-1.088.692-2.267.692-3.529v-.053c0-1.268-.231-2.449-.692-3.543m-.694 3.543c0 1.066-.193 2.067-.577 3.017-.386.941-.931 1.768-1.63 2.469-.704.704-1.561 1.266-2.57 1.678-1.01.413-2.14.617-3.389.617h-4.652v-15.561h4.652c1.249 0 2.379.201 3.389.602 1.009.406 1.866.953 2.57 1.651.699.694 1.244 1.512 1.63 2.447.384.937.577 1.946.577 3.027z" fill="#588eb5" transform="matrix(1 0 0 -1 310.2451 351.65653)"/><path d="m332.613 36.747h1.336v17.979h-1.336z" fill="#588eb5" transform="matrix(1 0 0 -1 0 393.851)"/><path d="m0 0v-15.642l-12.403 15.642h-1.258v-17.979h1.285v15.974l12.662-15.974h1.002v17.979z" fill="#588eb5" transform="matrix(1 0 0 -1 370.08 339.1242)"/><path d="m0 0c-1.207-.536-2.546-.807-4.021-.807-1.419 0-2.694.245-3.814.736-1.121.486-2.067 1.148-2.835 1.987-.774.841-1.364 1.819-1.771 2.94-.413 1.121-.618 2.315-.618 3.582v.053c0 1.212.207 2.383.628 3.506.42 1.121 1.016 2.111 1.795 2.966.782.854 1.719 1.543 2.815 2.056 1.095.511 2.309.767 3.648.767.734 0 1.405-.053 2.015-.153.609-.103 1.171-.259 1.693-.463.525-.204 1.023-.451 1.489-.742.473-.291.931-.626 1.376-1.004l-.874-.999c-.701.614-1.501 1.13-2.401 1.537-.898.413-2.026.617-3.376.617-1.096 0-2.1-.214-3.004-.64-.91-.428-1.694-1.01-2.351-1.744-.661-.735-1.169-1.588-1.53-2.564-.357-.975-.538-1.999-.538-3.076v-.05c0-1.162.177-2.239.528-3.234.35-.99.856-1.842 1.526-2.565.669-.715 1.477-1.28 2.429-1.688.949-.411 2.023-.617 3.222-.617.566 0 1.12.057 1.668.167.55.108 1.064.259 1.554.45.491.185.947.401 1.375.65.429.248.805.507 1.13.779v5.146h-6.009v1.208h7.293v-6.917c-.821-.718-1.838-1.346-3.042-1.884" fill="#588eb5" transform="matrix(1 0 0 -1 405.9218 356.6047)"/><path d="m429.867 43.655h6.885v1.438999h-6.885z" fill="#588eb5" transform="matrix(1 0 0 -1 0 393.851)"/></g></svg>